<svg xmlns="http://www.w3.org/2000/svg" xmlns:xlink="http://www.w3.org/1999/xlink" viewBox="0 0 264.17 79.19"><defs><style>.ba4c492e-b871-4d68-877b-b1e40d46521b{fill:none;}.b5937483-786f-42c2-8ab9-cc2fb6ffa71a{clip-path:url(#ef56bc4e-0f7f-464f-b147-6b54b77f7687);}.bccff0d0-08fb-4b40-b449-d6350b49cdab{fill:#010101;}</style><clipPath id="ef56bc4e-0f7f-464f-b147-6b54b77f7687" transform="translate(-22.88 -16.56)"><rect class="ba4c492e-b871-4d68-877b-b1e40d46521b" width="308.87" height="105.9"/></clipPath></defs><title>logoUniandes</title><g id="b72341a5-b84b-428d-a54e-c73e02686c15" data-name="Capa 2"><g id="e8fe0fae-8647-446f-a2db-a2021cab7613" data-name="Capa 1"><g class="b5937483-786f-42c2-8ab9-cc2fb6ffa71a"><path class="bccff0d0-08fb-4b40-b449-d6350b49cdab" d="M85,87.35a53.12,53.12,0,0,1-27.9,8.39,20.75,20.75,0,0,1-.23-4.93c.15-3.13,1.86-2.25,3.09-4.72a20.44,20.44,0,0,0,1.54-3.62c0-.09-.82-15.06-1-21.42-.11-3.42-.76-9.14-1.51-14.7-.44-3.29-1.45-5.9-1.91-9-.67-4.51-1.45-9.6-1.45-9.6C55,29.15,54.2,34.53,53.4,40.6c-.39,2.92-.77,6-1.13,8.86-.76,6.09-2.66,22.37-3,23.25-.43,1.34-.48-.35-.48-.35S50,55.28,50.3,47.79c.17-3.67.45-7.69.9-11.55A78.22,78.22,0,0,1,52.57,28s2-5.91,2.57-6,2.88,3.73,3.65,7.15c1.72,7.71,2.74,8.7,4.06,16.81,1.25,7.7,2.39,14.15,2.54,15.2.56,3.82.29,15.75-.68,20.5a3.88,3.88,0,0,1-1.14,2.63c-2,2-3.4,4.4-3.4,6s-.26,1.53.11,2.44c0,0,2.62,3.92,17.65-5a9.33,9.33,0,0,0,4.7-7.89V24.81s-14.9-5-26.39-5-25.86,5-25.86,5V79.51c0,3.37.49,9.69,5.3,11.84,0,0-12.8-4.38-12.8-11.9V20.15s19.54-3.59,33.37-3.59S90,20.15,90,20.15V79.52c0,5.11-5,7.83-5,7.83" transform="translate(-22.88 -16.56)"/><path class="bccff0d0-08fb-4b40-b449-d6350b49cdab" d="M270.73,41.43a11.39,11.39,0,0,1-5.52,1.14,7,7,0,0,1-5.42-2.11,8.41,8.41,0,0,1-1.93-5.9,9,9,0,0,1,1.93-6.07,6.3,6.3,0,0,1,5-2.17,8.35,8.35,0,0,1,2.38.3V20.24h3.57Zm-3.57-1.5V28.55a6,6,0,0,0-1.59-.2q-4.15,0-4.16,6t3.9,5.92a3.7,3.7,0,0,0,1.85-.35" transform="translate(-22.88 -16.56)"/><path class="bccff0d0-08fb-4b40-b449-d6350b49cdab" d="M287,34.27l-9.68,1.41q.43,4.4,4.31,4.39a8.76,8.76,0,0,0,4-.86l.85,2.25a10.8,10.8,0,0,1-5.22,1.11,6.92,6.92,0,0,1-5.37-2.14,8.68,8.68,0,0,1-2-6.09,9.1,9.1,0,0,1,1.8-6,6.11,6.11,0,0,1,4.94-2.15,5.79,5.79,0,0,1,4.81,2.06c1.1,1.38,1.6,3.39,1.53,6m-3.35-1.4c0-3-1-4.49-3.11-4.49a2.85,2.85,0,0,0-2.52,1.33,7.09,7.09,0,0,0-.91,4.16Z" transform="translate(-22.88 -16.56)"/><rect class="bccff0d0-08fb-4b40-b449-d6350b49cdab" x="78.71" y="33.21" width="5.61" height="34.68"/><path class="bccff0d0-08fb-4b40-b449-d6350b49cdab" d="M133.06,72.07q0,5.75-2.52,9.14a10,10,0,0,1-15.54,0c-1.68-2.26-2.53-5.31-2.53-9.14s.85-6.92,2.53-9.19a10.06,10.06,0,0,1,15.54,0q2.52,3.41,2.52,9.19m-5.56,0q0-9.28-4.73-9.29T118,72q0,9,4.73,9t4.73-9" transform="translate(-22.88 -16.56)"/><path class="bccff0d0-08fb-4b40-b449-d6350b49cdab" d="M152.29,77.31a6.92,6.92,0,0,1-2.44,5.33,9.14,9.14,0,0,1-6.39,2.2,11.87,11.87,0,0,1-6.85-1.79l1.47-3.58a7.21,7.21,0,0,0,4.65,1.43,3.89,3.89,0,0,0,2.76-1,3.29,3.29,0,0,0,1.06-2.5,3.5,3.5,0,0,0-.83-2.46,7.28,7.28,0,0,0-2.8-1.63q-5.65-2.16-5.65-6.94a6.72,6.72,0,0,1,2.18-5.1,7.89,7.89,0,0,1,5.67-2.07A11.51,11.51,0,0,1,151.55,61l-1.38,3.27a6.08,6.08,0,0,0-3.94-1.39,3.48,3.48,0,0,0-2.59,1,3.14,3.14,0,0,0-.95,2.32q0,2.43,3.68,3.9,5.92,2.4,5.92,7.31" transform="translate(-22.88 -16.56)"/><path class="bccff0d0-08fb-4b40-b449-d6350b49cdab" d="M193.66,84.44h-6.54l-2.65-8.84H173.38l-2.74,8.84h-5.7l11.39-34.38h6ZM183.57,71.9,180,59.8a23.85,23.85,0,0,1-.89-4.16H179c-.17.91-.49,2.29-.95,4.16l-3.7,12.1Z" transform="translate(-22.88 -16.56)"/><path class="bccff0d0-08fb-4b40-b449-d6350b49cdab" d="M216.73,84.44h-5.61V66.88q0-4.14-4.46-4.14a10.44,10.44,0,0,0-3.86.69v21h-5.6V61a22.88,22.88,0,0,1,9.69-1.79q5.19,0,7.68,2.29a6.74,6.74,0,0,1,2.16,5.29Z" transform="translate(-22.88 -16.56)"/><path class="bccff0d0-08fb-4b40-b449-d6350b49cdab" d="M242,83.1a17.87,17.87,0,0,1-8.65,1.79c-3.64,0-6.48-1.1-8.5-3.31s-3-5.28-3-9.24,1-7.15,3-9.51a9.83,9.83,0,0,1,7.81-3.4,13.23,13.23,0,0,1,3.73.47v-10H242Zm-5.61-2.35V62.93a9.11,9.11,0,0,0-2.49-.32q-6.53,0-6.52,9.42,0,9.27,6.11,9.28a5.66,5.66,0,0,0,2.9-.56" transform="translate(-22.88 -16.56)"/><path class="bccff0d0-08fb-4b40-b449-d6350b49cdab" d="M267.53,71.89,252.36,74.1q.69,6.89,6.75,6.89a13.47,13.47,0,0,0,6.26-1.38l1.33,3.53a16.81,16.81,0,0,1-8.18,1.75,10.83,10.83,0,0,1-8.41-3.36Q247,78.19,247,72q0-6,2.82-9.4a9.58,9.58,0,0,1,7.75-3.37q5,0,7.54,3.24t2.39,9.44m-5.25-2.2c0-4.69-1.63-7-4.87-7a4.47,4.47,0,0,0-4,2.07Q251.94,67,252,71.25Z" transform="translate(-22.88 -16.56)"/><path class="bccff0d0-08fb-4b40-b449-d6350b49cdab" d="M286.8,77.31a6.92,6.92,0,0,1-2.44,5.33,9.14,9.14,0,0,1-6.39,2.2,11.87,11.87,0,0,1-6.85-1.79l1.47-3.58a7.19,7.19,0,0,0,4.65,1.43,3.85,3.85,0,0,0,2.75-1,3.26,3.26,0,0,0,1.06-2.5,3.5,3.5,0,0,0-.82-2.46,7.25,7.25,0,0,0-2.81-1.63q-5.64-2.16-5.65-6.94a6.75,6.75,0,0,1,2.18-5.1,7.93,7.93,0,0,1,5.68-2.07A11.45,11.45,0,0,1,286.05,61l-1.37,3.27a6.09,6.09,0,0,0-3.95-1.39,3.5,3.5,0,0,0-2.59,1,3.13,3.13,0,0,0-.94,2.32c0,1.62,1.23,2.92,3.67,3.9q5.92,2.4,5.93,7.31" transform="translate(-22.88 -16.56)"/><path class="bccff0d0-08fb-4b40-b449-d6350b49cdab" d="M131.17,42.33H127.6V31.13c0-1.76-.95-2.64-2.84-2.64a6.78,6.78,0,0,0-2.47.44v13.4h-3.57V27.38a14.63,14.63,0,0,1,6.19-1.14,7.06,7.06,0,0,1,4.89,1.46,4.33,4.33,0,0,1,1.37,3.38Z" transform="translate(-22.88 -16.56)"/><path class="bccff0d0-08fb-4b40-b449-d6350b49cdab" d="M138.87,22a1.62,1.62,0,0,1-.57,1.25,2,2,0,0,1-1.39.51,2,2,0,0,1-1.4-.51,1.62,1.62,0,0,1-.57-1.25,1.65,1.65,0,0,1,.57-1.26,2,2,0,0,1,1.4-.53,2,2,0,0,1,1.39.52,1.63,1.63,0,0,1,.57,1.27m-.19,20.3h-3.57V26.52h3.57Z" transform="translate(-22.88 -16.56)"/><path class="bccff0d0-08fb-4b40-b449-d6350b49cdab" d="M155,26.52l-5.07,15.81h-3.4l-5.16-15.81h3.81l2.79,10.21a10.43,10.43,0,0,1,.38,2.17h.06c.09-.57.23-1.29.41-2.17l2.84-10.21Z" transform="translate(-22.88 -16.56)"/><path class="bccff0d0-08fb-4b40-b449-d6350b49cdab" d="M169.94,34.32l-9.68,1.41c.3,2.92,1.73,4.39,4.31,4.39a8.63,8.63,0,0,0,4-.87l.85,2.26a10.78,10.78,0,0,1-5.22,1.11,6.91,6.91,0,0,1-5.36-2.14,8.71,8.71,0,0,1-2-6.1,9,9,0,0,1,1.81-6,6.1,6.1,0,0,1,4.94-2.15,5.8,5.8,0,0,1,4.81,2.06c1.09,1.38,1.6,3.38,1.52,6m-3.34-1.4q0-4.49-3.11-4.49A2.86,2.86,0,0,0,161,29.75a7.22,7.22,0,0,0-.91,4.17Z" transform="translate(-22.88 -16.56)"/><path class="bccff0d0-08fb-4b40-b449-d6350b49cdab" d="M180.81,26.26l-.71,2.61a5.36,5.36,0,0,0-1.64-.26,3.38,3.38,0,0,0-1.71.38V42.33h-3.57v-15q2.61-1.26,7.63-1.11" transform="translate(-22.88 -16.56)"/><path class="bccff0d0-08fb-4b40-b449-d6350b49cdab" d="M192.2,37.79a4.41,4.41,0,0,1-1.55,3.4,5.85,5.85,0,0,1-4.08,1.41,7.53,7.53,0,0,1-4.37-1.15l.94-2.28a4.59,4.59,0,0,0,3,.91,2.46,2.46,0,0,0,1.76-.63,2.09,2.09,0,0,0,.68-1.6,2.24,2.24,0,0,0-.53-1.57,4.63,4.63,0,0,0-1.79-1c-2.4-.92-3.6-2.39-3.6-4.43A4.29,4.29,0,0,1,184,27.56a5,5,0,0,1,3.62-1.32,7.33,7.33,0,0,1,4.1,1.11l-.88,2.08a3.85,3.85,0,0,0-2.52-.88,2.23,2.23,0,0,0-1.65.6,2,2,0,0,0-.6,1.48q0,1.56,2.34,2.49,3.78,1.53,3.78,4.67" transform="translate(-22.88 -16.56)"/><path class="bccff0d0-08fb-4b40-b449-d6350b49cdab" d="M199.2,22a1.62,1.62,0,0,1-.57,1.25,2,2,0,0,1-1.4.51,2,2,0,0,1-1.39-.51,1.62,1.62,0,0,1-.57-1.25,1.65,1.65,0,0,1,.57-1.26,2.12,2.12,0,0,1,2.79,0A1.63,1.63,0,0,1,199.2,22M199,42.33h-3.57V26.52H199Z" transform="translate(-22.88 -16.56)"/><path class="bccff0d0-08fb-4b40-b449-d6350b49cdab" d="M215.25,41.48a11.39,11.39,0,0,1-5.52,1.14,7,7,0,0,1-5.42-2.11,8.41,8.41,0,0,1-1.93-5.9,9,9,0,0,1,1.93-6.07,6.26,6.26,0,0,1,5-2.17,8.35,8.35,0,0,1,2.38.3V20.29h3.57ZM211.68,40V28.6a5.57,5.57,0,0,0-1.59-.21q-4.16,0-4.16,6c0,3.94,1.3,5.92,3.9,5.92a3.7,3.7,0,0,0,1.85-.35" transform="translate(-22.88 -16.56)"/><path class="bccff0d0-08fb-4b40-b449-d6350b49cdab" d="M230.47,41.48a12.21,12.21,0,0,1-5.72,1.14c-4.3,0-6.44-1.6-6.44-4.81a4.64,4.64,0,0,1,2.6-4.3A17.05,17.05,0,0,1,227.13,32v-.85c0-1.74-1-2.61-3.14-2.61a9.07,9.07,0,0,0-4,1l-.82-2a12.25,12.25,0,0,1,5.43-1.2c3.88,0,5.83,1.82,5.83,5.45Zm-3.34-1.29V33.68a10.43,10.43,0,0,0-4,1.09,3.17,3.17,0,0,0-1.46,2.93c0,2,1.1,2.93,3.3,2.93a4.67,4.67,0,0,0,2.14-.44" transform="translate(-22.88 -16.56)"/><path class="bccff0d0-08fb-4b40-b449-d6350b49cdab" d="M246.57,41.48a11.38,11.38,0,0,1-5.51,1.14,7,7,0,0,1-5.43-2.11,8.41,8.41,0,0,1-1.93-5.9,9,9,0,0,1,1.93-6.07,6.28,6.28,0,0,1,5-2.17,8.35,8.35,0,0,1,2.38.3V20.29h3.57ZM243,40V28.6a5.57,5.57,0,0,0-1.59-.21q-4.16,0-4.16,6c0,3.94,1.3,5.92,3.9,5.92A3.68,3.68,0,0,0,243,40" transform="translate(-22.88 -16.56)"/><path class="bccff0d0-08fb-4b40-b449-d6350b49cdab" d="M101.54,20.33h3.8v17c0,1.87,1,2.8,3,2.8a7.1,7.1,0,0,0,2.62-.46V20.33h3.8v21a15.48,15.48,0,0,1-6.57,1.21c-2.35,0-4.08-.52-5.21-1.56a4.56,4.56,0,0,1-1.46-3.58Z" transform="translate(-22.88 -16.56)"/></g></g></g></svg>